<svg xmlns="http://www.w3.org/2000/svg" xml:space="preserve" id="Ebene_1" width="477.65" height="263.3" x="0" y="0" version="1.1" viewBox="0 0 955.3 526.6"><style id="style56">.st0{fill:#00c1b6}.st1{fill:#1b9a99}</style><g id="Ebene_1_00000104692970429684080800000006472111204584987530_" transform="translate(-490.1 -233.3)"><path id="path58" d="m1163.3 569.5-97.2-52.2c-7.5-4-16.7 1.4-16.7 10v104.3c0 8.6 9.1 14 16.7 10l97.2-52.2c8-4.2 8-15.6 0-19.9zM777.8 673.3v86.6H625.6c-74.8 0-135.5-60.7-135.5-135.5v-146c10.5 12 26 19.6 43.2 19.6 17.3 0 32.9-7.7 43.4-19.9v146.3c0 27 21.9 48.9 48.9 48.9z" class="st0"/><path id="path60" d="M776.8 759.9c-74.8 0-135.5-60.7-135.5-135.5V441.1c0-23.9 19.4-43.3 43.3-43.3s43.3 19.4 43.3 43.3v183.4c0 27 21.9 48.9 48.9 48.9h15.7v-189c0-47.8 38.8-86.6 86.6-86.6v259.8c0 56.5-45.8 102.3-102.3 102.3z" class="st1"/><path id="path62" d="M1146.3 759.4h-19.1c-23.9 0-43.3-19.4-43.3-43.3s19.4-43.3 43.3-43.3h14.4c27 0 48.9-21.9 48.9-48.9v-87.3c0-28.8-23.4-52.2-52.2-52.2h-261v-86.6h261c76.7 0 138.8 62.1 138.8 138.8v92c0 72.3-58.6 130.8-130.8 130.8z" class="st1"/><path id="path64" d="M1445.4 441.1c0 12-4.8 22.8-12.7 30.6-7.8 7.8-18.7 12.7-30.6 12.7h-72.8c-27 0-48.9 21.9-48.9 48.9v92c0 26.3 21.3 47.5 47.5 47.5h37c-12.3 10.5-20 26.1-20 43.5 0 17.1 7.6 32.5 19.5 43.1h-31.8c-76.7 0-138.8-62.1-138.8-138.8v-87.3c0-74.8 60.7-135.5 135.5-135.5h72.8c23.9 0 43.3 19.4 43.3 43.3zm-347.1-121.2h-23c-27 0-48.9 21.9-48.9 48.9V716c0 23.9-19.4 43.3-43.3 43.3s-43.3-19.4-43.3-43.3V368.8c0-74.8 60.7-135.5 135.5-135.5h23.2c-12.2 10.5-19.9 26.1-19.9 43.4 0 17.2 7.6 32.7 19.7 43.2z" class="st1"/><circle id="circle66" cx="1136" cy="276.7" r="43.1" class="st1"/><circle id="circle68" cx="1402.3" cy="716.3" r="43.1" class="st1"/><circle id="circle70" cx="533.3" cy="440.7" r="43.1" class="st0" transform="rotate(-80.781 533.308 440.692)"/></g></svg>